{"title":"Fractured.2014.UNRATED.HDRIP.XviD.AC3-Insane098","uid":10118120,"size":933272168,"categoryP":"video","categoryS":"movies","magnet":"?xt=urn:btih:0012a889ab2e605190c99d65e4687b54dcf2c0fa&amp;dn=Fractured.2014.UNRATED.HDRIP.XviD.AC3-Insane098&amp;tr=udp%3A%2F%2Ftracker.openbittorrent.com%3A80&amp;tr=udp%3A%2F%2Fopen.demonii.com%3A1337&amp;tr=udp%3A%2F%2Ftracker.coppersurfer.tk%3A6969&amp;tr=udp%3A%2F%2Fexodus.desync.com%3A6969","seeders":0,"leechers":1,"uploader":"098765432","files":-1,"time":1399634106,"description":"After awakening from a coma with no idea who he is, Dylan White (Callum Blue) creates a safe and normal life for himself. It doesn't last long: horrifying visions start to interrupt his waking moments. Following clues that take him to the dark underbelly of New Orleans, Dylan meets his arch nemesis Quincy (Vinnie Jones) and soon finds that both his life and soul are in danger. FRACTURED is a trip to the dark side, noir-style: bad men, bad dames, bad sex and bad intentions. &lt;a href=&quot;\nhttp://www.imdb.com/title/tt2193191/&quot; rel=&quot;nofollow&quot; target=&quot;_NEW&quot;&gt;\nhttp://www.imdb.com/title/tt2193191/&lt;/a&gt;\n\nMedia Info:\nGeneral\nComplete name                            : Fractured.2014.UNRATED.HDRIP.XviD.AC3-Insane098.avi\nFormat                                   : AVI\nFormat/Info                              : Audio Video Interleave\nFile size                                : 890 MiB\nDuration                                 : 1h 30mn\nOverall bit rate                         : 1 373 Kbps\nWriting application                      : Lavf55.33.100\n\nVideo\nID                                       : 0\nFormat                                   : MPEG-4 Visual\nFormat profile                           : Advanced Simple@L5\nFormat settings, BVOP                    : No\nFormat settings, QPel                    : No\nFormat settings, GMC                     : No warppoints\nFormat settings, Matrix                  : Default (H.263)\nCodec ID                                 : XVID\nCodec ID/Hint                            : XviD\nDuration                                 : 1h 30mn\nBit rate                                 : 978 Kbps\nWidth                                    : 720 pixels\nHeight                                   : 304 pixels\nDisplay aspect ratio                     : 2.35:1\nOriginal display aspect ratio            : 2.35:1\nFrame rate                               : 23.976 fps\nColor space                              : YUV\nChroma subsampling                       : 4:2:0\nBit depth                                : 8 bits\nScan type                                : Progressive\nCompression mode                         : Lossy\nBits/(Pixel*Frame)                       : 0.186\nStream size                              : 634 MiB (71%)\nWriting library                          : XviD 65\n\nAudio\nID                                       : 1\nFormat                                   : AC-3\nFormat/Info                              : Audio Coding 3\nCodec ID                                 : 00001000-0000-0020-8000-00AA00389B71\nDuration                                 : 1h 30mn\nBit rate                                 : 384 Kbps\nChannel count                            : 6 channels\nChannel positions                        : Front: L C R, Side: L R, LFE\nSampling rate                            : 48.0 KHz\nBit depth                                : 16 bits\nCompression mode                         : Lossy\nStream size                              : 249 MiB (28%)\nInterleave, duration                     : 32 ms (0.77 video frame)","torrent":{"xt":"urn:btih:0012a889ab2e605190c99d65e4687b54dcf2c0fa","amp;dn":"Fractured.2014.UNRATED.HDRIP.XviD.AC3-Insane098","amp;tr":["udp%3A%2F%2Ftracker.openbittorrent.com%3A80","udp%3A%2F%2Fopen.demonii.com%3A1337","udp%3A%2F%2Ftracker.coppersurfer.tk%3A6969","udp%3A%2F%2Fexodus.desync.com%3A6969"],"infoHash":"0012a889ab2e605190c99d65e4687b54dcf2c0fa","infoHashBuffer":{"type":"Buffer","data":[0,18,168,137,171,46,96,81,144,201,157,101,228,104,123,84,220,242,192,250]},"announce":[],"urlList":[]}}